<?xml version="1.0" encoding="UTF-8" standalone="no"?>
<svg
   version="1.1"
   width="512"
   height="512"
   x="0"
   y="0"
   viewBox="0 0 490 490.597"
   style="enable-background:new 0 0 512 512"
   xml:space="preserve"
   class=""
   id="svg201"
   sodipodi:docname="icon_git.svg"
   inkscape:version="1.2.2 (1:1.2.2+202212051551+b0a8486541)"
   xmlns:inkscape="http://www.inkscape.org/namespaces/inkscape"
   xmlns:sodipodi="http://sodipodi.sourceforge.net/DTD/sodipodi-0.dtd"
   xmlns="http://www.w3.org/2000/svg"
   xmlns:svg="http://www.w3.org/2000/svg"><defs
     id="defs205" /><sodipodi:namedview
     id="namedview203"
     pagecolor="#ffffff"
     bordercolor="#000000"
     borderopacity="0.25"
     inkscape:showpageshadow="2"
     inkscape:pageopacity="0.0"
     inkscape:pagecheckerboard="0"
     inkscape:deskcolor="#d1d1d1"
     showgrid="false"
     inkscape:zoom="1.609375"
     inkscape:cx="256"
     inkscape:cy="256"
     inkscape:window-width="1850"
     inkscape:window-height="1027"
     inkscape:window-x="1430"
     inkscape:window-y="27"
     inkscape:window-maximized="1"
     inkscape:current-layer="svg201" /><g
     id="g199"><path
       d="M245.563 490.598a62.552 62.552 0 0 1-44-18.266L18.495 289.262c-24.262-24.262-24.262-63.602 0-87.864L201.562 18.195c24.266-24.261 63.602-24.261 87.868 0l183.199 183.067c24.262 24.265 24.262 63.605 0 87.867L289.563 472.332a62.565 62.565 0 0 1-44 18.266zm0-469.336a41.084 41.084 0 0 0-28.934 12L33.563 216.332a40.785 40.785 0 0 0-11.97 28.863 40.787 40.787 0 0 0 11.97 28.867l183.066 183.2a40.794 40.794 0 0 0 57.734 0l183.2-183.067a40.798 40.798 0 0 0 0-57.73L274.495 33.262a41.084 41.084 0 0 0-28.934-12zm0 0"
       fill="#f1502f"
       data-original="#000000"
       class=""
       id="path193" /><path
       d="M245.563 181.262c-29.458 0-53.333-23.875-53.333-53.332 0-29.453 23.875-53.332 53.333-53.332 29.453 0 53.332 23.879 53.332 53.332 0 29.457-23.88 53.332-53.332 53.332zm0-85.332c-17.672 0-32 14.328-32 32s14.328 32 32 32 32-14.328 32-32-14.329-32-32-32zM245.563 394.598c-29.458 0-53.333-23.88-53.333-53.336 0-29.453 23.875-53.332 53.333-53.332 29.453 0 53.332 23.879 53.332 53.332 0 29.457-23.88 53.336-53.332 53.336zm0-85.336c-17.672 0-32 14.328-32 32 0 17.675 14.328 32 32 32s32-14.325 32-32c0-17.672-14.329-32-32-32zM352.23 287.93c-29.457 0-53.335-23.88-53.335-53.332 0-29.457 23.878-53.336 53.335-53.336 29.454 0 53.333 23.879 53.333 53.336 0 29.453-23.88 53.332-53.333 53.332zm0-85.332c-17.675 0-32 14.324-32 32 0 17.672 14.325 32 32 32 17.672 0 32-14.328 32-32 0-17.676-14.328-32-32-32zm0 0"
       fill="#f1502f"
       data-original="#000000"
       class=""
       id="path195" /><path
       d="m168.746 66.094 15.086-15.082 39.164 39.164-15.086 15.082zM268.121 165.578l15.086-15.086 46.332 46.332-15.086 15.086zM234.895 170.598h21.335v128h-21.335zm0 0"
       fill="#f1502f"
       data-original="#000000"
       class=""
       id="path197" /></g></svg>
