<?xml version="1.0" encoding="UTF-8" standalone="no"?>
<svg
   version="1.1"
   width="512"
   height="512"
   x="0"
   y="0"
   viewBox="0 0 512 512"
   style="enable-background:new 0 0 512 512"
   xml:space="preserve"
   class=""
   id="svg31"
   sodipodi:docname="icon_js.svg"
   inkscape:version="1.2.2 (1:1.2.2+202212051551+b0a8486541)"
   xmlns:inkscape="http://www.inkscape.org/namespaces/inkscape"
   xmlns:sodipodi="http://sodipodi.sourceforge.net/DTD/sodipodi-0.dtd"
   xmlns="http://www.w3.org/2000/svg"
   xmlns:svg="http://www.w3.org/2000/svg"><defs
     id="defs35" /><sodipodi:namedview
     id="namedview33"
     pagecolor="#ffffff"
     bordercolor="#000000"
     borderopacity="0.25"
     inkscape:showpageshadow="2"
     inkscape:pageopacity="0.0"
     inkscape:pagecheckerboard="0"
     inkscape:deskcolor="#d1d1d1"
     showgrid="false"
     inkscape:zoom="1.6601562"
     inkscape:cx="256"
     inkscape:cy="256"
     inkscape:window-width="1850"
     inkscape:window-height="1027"
     inkscape:window-x="1430"
     inkscape:window-y="27"
     inkscape:window-maximized="1"
     inkscape:current-layer="svg31" /><g
     id="g29"><path
       fill="#ffdf00"
       d="M0 0h512v512H0z"
       data-original="#ffdf00"
       class=""
       id="path25" /><path
       d="M343.934 400.002c10.313 16.839 23.731 29.216 47.462 29.216 19.935 0 32.67-9.964 32.67-23.731 0-16.498-13.084-22.341-35.027-31.939l-12.028-5.161c-34.719-14.791-57.783-33.321-57.783-72.493 0-36.084 27.494-63.553 70.461-63.553 30.59 0 52.582 10.646 68.429 38.522l-37.465 24.056c-8.249-14.791-17.148-20.618-30.964-20.618-14.092 0-23.024 8.94-23.024 20.618 0 14.434 8.94 20.277 29.582 29.217l12.028 5.152c40.879 17.53 63.959 35.401 63.959 75.581 0 43.317-34.028 67.048-79.726 67.048-44.682 0-73.549-21.293-87.674-49.201zm-169.96 4.169c7.558 13.41 14.434 24.747 30.964 24.747 15.807 0 25.779-6.185 25.779-30.232V235.089h48.112v164.246c0 49.818-29.208 72.493-71.843 72.493-38.522 0-60.83-19.936-72.176-43.947z"
       fill="#000000"
       data-original="#000000"
       class=""
       id="path27" /></g></svg>
